<svg width="40" height="40" viewBox="0 0 40 40" fill="none" xmlns="http://www.w3.org/2000/svg">
<path d="M25.1001 16.3833C26.0397 16.0706 27.0554 16.0706 27.9951 16.3833C28.6084 16.5883 29.1151 16.9467 29.6067 17.3767C30.0767 17.79 30.6101 18.3417 31.2484 19.0017C32.0106 19.7939 32.774 20.585 33.5384 21.375C34.2851 22.145 34.5851 22.9583 34.5817 24.045C34.5717 26.81 34.5134 28.7067 33.7201 30.2617C32.9608 31.7508 31.7496 32.9614 30.2601 33.72C28.0184 34.8633 25.1517 34.5833 22.7217 34.5833H17.2784C15.4584 34.5833 14.0151 34.5833 12.8534 34.4883C11.6634 34.3917 10.6584 34.1883 9.74007 33.7217C8.2503 32.9626 7.03909 31.7514 6.28007 30.2617C5.7884 29.2967 5.59673 28.2467 5.49673 26.9683C5.35007 25.035 6.99007 23.47 8.25173 22.1983C8.7634 21.6817 9.3034 21.2483 9.9734 21.0017C10.9899 20.6299 12.1052 20.6299 13.1217 21.0017C13.7917 21.2483 14.3317 21.6817 14.8434 22.1983C15.3401 22.6983 15.8967 23.365 16.5701 24.1733C16.6284 24.245 16.7201 24.3117 16.8051 24.2233L21.8467 19.0017C22.4867 18.3417 23.0184 17.79 23.4884 17.3767C23.9801 16.9467 24.4884 16.5883 25.1001 16.3833ZM25.1384 19.255C24.7551 19.5917 24.2934 20.0683 23.6101 20.7767L18.6034 25.96C18.3465 26.2262 18.0364 26.4353 17.6934 26.5736C17.3503 26.712 16.9819 26.7765 16.6122 26.763C16.2426 26.7494 15.8799 26.6582 15.5478 26.4951C15.2158 26.3321 14.9218 26.1009 14.6851 25.8167C13.9667 24.9567 13.4784 24.3717 13.0684 23.96C12.6684 23.555 12.4351 23.4133 12.2634 23.35C11.8012 23.1809 11.294 23.1809 10.8317 23.35C10.6601 23.4133 10.4284 23.555 10.0267 23.96C9.41007 24.58 8.86507 25.2717 8.30673 25.9433C8.0384 26.265 7.96507 26.435 7.99507 26.8433C8.0784 27.9367 8.24007 28.6017 8.50673 29.1267C9.026 30.1456 9.85445 30.9741 10.8734 31.4933C11.3817 31.7517 12.0234 31.9117 13.0567 31.9967C14.1067 32.0817 15.4467 32.0833 17.3334 32.0833H22.6667C24.6534 32.0833 27.2751 32.4367 29.1267 31.4933C30.1457 30.9741 30.9741 30.1456 31.4934 29.1267C31.9634 28.2017 32.0701 26.955 32.0817 24.0367C32.0834 23.58 32.0134 23.3933 31.6851 23.055L29.4851 20.7767C28.8017 20.0683 28.3417 19.5933 27.9567 19.255C27.0984 18.5017 26.0334 18.4683 25.1384 19.255Z" fill="white"/>
<path d="M17.2784 5.41669H22.7217C24.5417 5.41669 25.9851 5.41669 27.1467 5.51169C28.3367 5.60835 29.3417 5.81169 30.2617 6.27835C31.7512 7.03809 32.9618 8.24989 33.7201 9.74002C34.1884 10.6567 34.3917 11.6634 34.4884 12.8534C34.5834 14.015 34.5834 15.4584 34.5834 17.2784V22.7217C34.5834 24.5417 34.5834 25.985 34.4884 27.1467C34.3917 28.3367 34.1884 29.3417 33.7217 30.2617C32.962 31.7511 31.7502 32.9617 30.2601 33.72C29.3434 34.1884 28.3367 34.3917 27.1467 34.4884C25.9851 34.5834 24.5417 34.5834 22.7217 34.5834H17.2784C15.4584 34.5834 14.0151 34.5834 12.8534 34.4884C11.6634 34.3917 10.6584 34.1884 9.74008 33.7217C8.25031 32.9627 7.03911 31.7515 6.28008 30.2617C5.81175 29.3417 5.60841 28.3367 5.51175 27.1467C5.41675 25.985 5.41675 24.5417 5.41675 22.7217V17.2784C5.41675 15.4584 5.41675 14.015 5.51175 12.8534C5.60841 11.6634 5.81175 10.6584 6.27841 9.74002C7.03787 8.25 8.24969 7.03876 9.74008 6.28002C10.6567 5.81169 11.6634 5.60835 12.8534 5.51169C14.0151 5.41669 15.4584 5.41669 17.2784 5.41669ZM13.0567 8.00335C12.0234 8.08669 11.3817 8.24835 10.8734 8.50669C9.85447 9.02596 9.02602 9.85441 8.50675 10.8734C8.24841 11.3817 8.08841 12.0234 8.00341 13.0567C7.91841 14.1067 7.91675 15.4467 7.91675 17.3334V22.6667C7.91675 24.555 7.91675 25.895 8.00341 26.9434C8.08675 27.9767 8.24841 28.6184 8.50675 29.1267C9.02602 30.1456 9.85447 30.9741 10.8734 31.4934C11.3817 31.7517 12.0234 31.9117 13.0567 31.9967C14.1067 32.0817 15.4467 32.0834 17.3334 32.0834H22.6667C24.5551 32.0834 25.8951 32.0834 26.9434 31.9967C27.9767 31.9134 28.6184 31.7517 29.1267 31.4934C30.1457 30.9741 30.9741 30.1456 31.4934 29.1267C31.7517 28.6184 31.9117 27.9767 31.9967 26.9434C32.0817 25.8934 32.0834 24.5534 32.0834 22.6667V17.3334C32.0834 15.4467 32.0834 14.105 31.9967 13.0567C31.9134 12.0234 31.7517 11.3817 31.4934 10.8734C30.9741 9.85441 30.1457 9.02596 29.1267 8.50669C28.6184 8.24835 27.9767 8.08835 26.9434 8.00335C25.8934 7.91835 24.5534 7.91669 22.6667 7.91669H17.3334C15.4467 7.91669 14.1051 7.91669 13.0567 8.00335Z" fill="white"/>
<path d="M16.6666 12.9167C16.1141 12.9167 15.5841 13.1362 15.1934 13.5269C14.8027 13.9176 14.5833 14.4475 14.5833 15C14.5833 15.5526 14.8027 16.0825 15.1934 16.4732C15.5841 16.8639 16.1141 17.0834 16.6666 17.0834C17.2191 17.0834 17.749 16.8639 18.1397 16.4732C18.5304 16.0825 18.7499 15.5526 18.7499 15C18.7499 14.4475 18.5304 13.9176 18.1397 13.5269C17.749 13.1362 17.2191 12.9167 16.6666 12.9167ZM12.0833 15C12.0833 13.7844 12.5661 12.6187 13.4257 11.7591C14.2852 10.8996 15.451 10.4167 16.6666 10.4167C17.8822 10.4167 19.048 10.8996 19.9075 11.7591C20.767 12.6187 21.2499 13.7844 21.2499 15C21.2499 16.2156 20.767 17.3814 19.9075 18.2409C19.048 19.1005 17.8822 19.5834 16.6666 19.5834C15.451 19.5834 14.2852 19.1005 13.4257 18.2409C12.5661 17.3814 12.0833 16.2156 12.0833 15Z" fill="white"/>
</svg>
